<?xml version="1.0" encoding="UTF-8"?>
<svg xmlns="http://www.w3.org/2000/svg" xmlns:xlink="http://www.w3.org/1999/xlink" width="375pt" height="374.999991pt" viewBox="0 0 375 374.999991" version="1.2">
<defs>
<clipPath id="clip1">
  <path d="M 37.5 37.5 L 337.5 37.5 L 337.5 337.5 L 37.5 337.5 Z M 37.5 37.5 "/>
</clipPath>
<clipPath id="clip2">
  <path d="M 289.113281 202.015625 L 221.371094 202.015625 L 221.371094 192.339844 L 289.113281 192.339844 Z M 298.789062 192.339844 L 318.144531 192.339844 L 318.144531 202.015625 L 298.789062 202.015625 Z M 221.371094 172.984375 L 318.144531 172.984375 L 318.144531 182.660156 L 221.371094 182.660156 Z M 231.046875 105.242188 L 308.46875 105.242188 L 308.46875 153.628906 L 231.046875 153.628906 Z M 221.371094 163.304688 L 318.144531 163.304688 L 318.144531 95.566406 L 221.371094 95.566406 Z M 134.273438 211.695312 L 192.339844 211.695312 L 192.339844 221.371094 L 134.273438 221.371094 Z M 134.273438 231.046875 L 192.339844 231.046875 L 192.339844 240.726562 L 134.273438 240.726562 Z M 134.273438 250.402344 L 192.339844 250.402344 L 192.339844 260.082031 L 134.273438 260.082031 Z M 172.984375 269.757812 L 172.984375 279.433594 L 163.304688 279.433594 L 163.304688 269.757812 Z M 182.660156 269.757812 L 192.339844 269.757812 L 192.339844 279.433594 L 182.660156 279.433594 Z M 153.628906 279.433594 L 143.953125 279.433594 L 143.953125 269.757812 L 153.628906 269.757812 Z M 66.53125 298.789062 L 85.886719 298.789062 L 85.886719 308.46875 L 66.53125 308.46875 Z M 56.855469 318.144531 L 95.566406 318.144531 L 95.566406 289.113281 L 56.855469 289.113281 Z M 114.917969 298.789062 L 134.273438 298.789062 L 134.273438 308.46875 L 114.917969 308.46875 Z M 105.242188 318.144531 L 143.953125 318.144531 L 143.953125 289.113281 L 105.242188 289.113281 Z M 240.726562 221.371094 L 260.082031 221.371094 L 260.082031 231.046875 L 240.726562 231.046875 Z M 231.046875 240.726562 L 269.757812 240.726562 L 269.757812 211.695312 L 231.046875 211.695312 Z M 289.113281 221.371094 L 308.46875 221.371094 L 308.46875 231.046875 L 289.113281 231.046875 Z M 279.433594 240.726562 L 318.144531 240.726562 L 318.144531 211.695312 L 279.433594 211.695312 Z M 163.304688 298.789062 L 182.660156 298.789062 L 182.660156 308.46875 L 163.304688 308.46875 Z M 153.628906 318.144531 L 192.339844 318.144531 L 192.339844 289.113281 L 153.628906 289.113281 Z M 114.917969 260.082031 L 66.53125 260.082031 L 66.53125 250.402344 L 85.886719 250.402344 L 85.886719 206.855469 L 66.53125 206.855469 L 66.53125 197.175781 L 71.371094 197.175781 C 76.53125 197.175781 81.578125 195.476562 85.753906 192.339844 L 95.566406 192.339844 L 95.566406 250.402344 L 114.917969 250.402344 Z M 124.597656 240.726562 L 105.242188 240.726562 L 105.242188 182.660156 L 82.21875 182.660156 L 80.859375 183.851562 C 78.96875 185.515625 75.773438 187.5 71.371094 187.5 L 56.855469 187.5 L 56.855469 216.53125 L 76.210938 216.53125 L 76.210938 240.726562 L 56.855469 240.726562 L 56.855469 269.757812 L 124.597656 269.757812 Z M 90.726562 143.953125 C 96.054688 143.953125 100.402344 148.300781 100.402344 153.628906 C 100.402344 158.960938 96.054688 163.304688 90.726562 163.304688 C 85.394531 163.304688 81.046875 158.960938 81.046875 153.628906 C 81.046875 148.300781 85.394531 143.953125 90.726562 143.953125 Z M 90.726562 172.984375 C 101.40625 172.984375 110.082031 164.308594 110.082031 153.628906 C 110.082031 142.949219 101.40625 134.273438 90.726562 134.273438 C 80.046875 134.273438 71.371094 142.949219 71.371094 153.628906 C 71.371094 164.308594 80.046875 172.984375 90.726562 172.984375 Z M 153.628906 66.53125 L 143.953125 66.53125 L 143.953125 56.855469 L 153.628906 56.855469 Z M 134.273438 66.53125 L 124.597656 66.53125 L 124.597656 56.855469 L 134.273438 56.855469 Z M 114.917969 66.53125 L 105.242188 66.53125 L 105.242188 56.855469 L 114.917969 56.855469 Z M 322.984375 250.402344 L 211.695312 250.402344 L 211.695312 114.917969 L 95.566406 114.917969 L 95.566406 85.886719 L 327.824219 85.886719 L 327.824219 245.566406 C 327.824219 248.230469 325.648438 250.402344 322.984375 250.402344 Z M 146.785156 124.597656 L 202.015625 179.824219 L 202.015625 195.175781 L 131.4375 124.597656 Z M 202.015625 166.140625 L 160.472656 124.597656 L 202.015625 124.597656 Z M 47.175781 327.824219 L 47.175781 124.597656 L 117.753906 124.597656 L 202.015625 208.859375 L 202.015625 327.824219 Z M 100.402344 47.175781 L 322.984375 47.175781 C 325.648438 47.175781 327.824219 49.351562 327.824219 52.015625 L 327.824219 76.210938 L 95.566406 76.210938 L 95.566406 52.015625 C 95.566406 49.351562 97.738281 47.175781 100.402344 47.175781 Z M 322.984375 37.5 L 100.402344 37.5 C 92.390625 37.5 85.886719 44.003906 85.886719 52.015625 L 85.886719 114.917969 L 37.5 114.917969 L 37.5 337.5 L 211.695312 337.5 L 211.695312 260.082031 L 322.984375 260.082031 C 330.996094 260.082031 337.5 253.578125 337.5 245.566406 L 337.5 52.015625 C 337.5 44.003906 330.996094 37.5 322.984375 37.5 Z M 322.984375 37.5 "/>
</clipPath>
<clipPath id="clip3">
  <path d="M 289.113281 202.015625 L 221.371094 202.015625 L 221.371094 192.339844 L 289.113281 192.339844 Z M 298.789062 192.339844 L 318.144531 192.339844 L 318.144531 202.015625 L 298.789062 202.015625 Z M 221.371094 172.984375 L 318.144531 172.984375 L 318.144531 182.660156 L 221.371094 182.660156 Z M 231.046875 105.242188 L 308.46875 105.242188 L 308.46875 153.628906 L 231.046875 153.628906 Z M 221.371094 163.304688 L 318.144531 163.304688 L 318.144531 95.566406 L 221.371094 95.566406 Z M 134.273438 211.695312 L 192.339844 211.695312 L 192.339844 221.371094 L 134.273438 221.371094 Z M 134.273438 231.046875 L 192.339844 231.046875 L 192.339844 240.726562 L 134.273438 240.726562 Z M 134.273438 250.402344 L 192.339844 250.402344 L 192.339844 260.082031 L 134.273438 260.082031 Z M 172.984375 269.757812 L 172.984375 279.433594 L 163.304688 279.433594 L 163.304688 269.757812 Z M 182.660156 269.757812 L 192.339844 269.757812 L 192.339844 279.433594 L 182.660156 279.433594 Z M 153.628906 279.433594 L 143.953125 279.433594 L 143.953125 269.757812 L 153.628906 269.757812 Z M 66.53125 298.789062 L 85.886719 298.789062 L 85.886719 308.46875 L 66.53125 308.46875 Z M 56.855469 318.144531 L 95.566406 318.144531 L 95.566406 289.113281 L 56.855469 289.113281 Z M 114.917969 298.789062 L 134.273438 298.789062 L 134.273438 308.46875 L 114.917969 308.46875 Z M 105.242188 318.144531 L 143.953125 318.144531 L 143.953125 289.113281 L 105.242188 289.113281 Z M 240.726562 221.371094 L 260.082031 221.371094 L 260.082031 231.046875 L 240.726562 231.046875 Z M 231.046875 240.726562 L 269.757812 240.726562 L 269.757812 211.695312 L 231.046875 211.695312 Z M 289.113281 221.371094 L 308.46875 221.371094 L 308.46875 231.046875 L 289.113281 231.046875 Z M 279.433594 240.726562 L 318.144531 240.726562 L 318.144531 211.695312 L 279.433594 211.695312 Z M 163.304688 298.789062 L 182.660156 298.789062 L 182.660156 308.46875 L 163.304688 308.46875 Z M 153.628906 318.144531 L 192.339844 318.144531 L 192.339844 289.113281 L 153.628906 289.113281 Z M 114.917969 260.082031 L 66.53125 260.082031 L 66.53125 250.402344 L 85.886719 250.402344 L 85.886719 206.855469 L 66.53125 206.855469 L 66.53125 197.175781 L 71.371094 197.175781 C 76.53125 197.175781 81.578125 195.476562 85.753906 192.339844 L 95.566406 192.339844 L 95.566406 250.402344 L 114.917969 250.402344 Z M 124.597656 240.726562 L 105.242188 240.726562 L 105.242188 182.660156 L 82.21875 182.660156 L 80.859375 183.851562 C 78.96875 185.515625 75.773438 187.5 71.371094 187.5 L 56.855469 187.5 L 56.855469 216.53125 L 76.210938 216.53125 L 76.210938 240.726562 L 56.855469 240.726562 L 56.855469 269.757812 L 124.597656 269.757812 Z M 90.726562 143.953125 C 96.054688 143.953125 100.402344 148.300781 100.402344 153.628906 C 100.402344 158.960938 96.054688 163.304688 90.726562 163.304688 C 85.394531 163.304688 81.046875 158.960938 81.046875 153.628906 C 81.046875 148.300781 85.394531 143.953125 90.726562 143.953125 Z M 90.726562 172.984375 C 101.40625 172.984375 110.082031 164.308594 110.082031 153.628906 C 110.082031 142.949219 101.40625 134.273438 90.726562 134.273438 C 80.046875 134.273438 71.371094 142.949219 71.371094 153.628906 C 71.371094 164.308594 80.046875 172.984375 90.726562 172.984375 Z M 153.628906 66.53125 L 143.953125 66.53125 L 143.953125 56.855469 L 153.628906 56.855469 Z M 134.273438 66.53125 L 124.597656 66.53125 L 124.597656 56.855469 L 134.273438 56.855469 Z M 114.917969 66.53125 L 105.242188 66.53125 L 105.242188 56.855469 L 114.917969 56.855469 Z M 322.984375 250.402344 L 211.695312 250.402344 L 211.695312 114.917969 L 95.566406 114.917969 L 95.566406 85.886719 L 327.824219 85.886719 L 327.824219 245.566406 C 327.824219 248.230469 325.648438 250.402344 322.984375 250.402344 Z M 146.785156 124.597656 L 202.015625 179.824219 L 202.015625 195.175781 L 131.4375 124.597656 Z M 202.015625 166.140625 L 160.472656 124.597656 L 202.015625 124.597656 Z M 47.175781 327.824219 L 47.175781 124.597656 L 117.753906 124.597656 L 202.015625 208.859375 L 202.015625 327.824219 Z M 100.402344 47.175781 L 322.984375 47.175781 C 325.648438 47.175781 327.824219 49.351562 327.824219 52.015625 L 327.824219 76.210938 L 95.566406 76.210938 L 95.566406 52.015625 C 95.566406 49.351562 97.738281 47.175781 100.402344 47.175781 Z M 322.984375 37.5 L 100.402344 37.5 C 92.390625 37.5 85.886719 44.003906 85.886719 52.015625 L 85.886719 114.917969 L 37.5 114.917969 L 37.5 337.5 L 211.695312 337.5 L 211.695312 260.082031 L 322.984375 260.082031 C 330.996094 260.082031 337.5 253.578125 337.5 245.566406 L 337.5 52.015625 C 337.5 44.003906 330.996094 37.5 322.984375 37.5 "/>
</clipPath>
<linearGradient id="linear0" gradientUnits="userSpaceOnUse" x1="0.0000000535417" y1="0" x2="1" y2="0" gradientTransform="matrix(0,-299.999993,299.999993,0,187.5,337.499994)">
<stop offset="0" style="stop-color:rgb(62.399292%,18.399048%,100%);stop-opacity:1;"/>
<stop offset="0.00390625" style="stop-color:rgb(62.199402%,18.598938%,100%);stop-opacity:1;"/>
<stop offset="0.0078125" style="stop-color:rgb(61.999512%,18.798828%,100%);stop-opacity:1;"/>
<stop offset="0.0117188" style="stop-color:rgb(61.799622%,18.998718%,99.798584%);stop-opacity:1;"/>
<stop offset="0.015625" style="stop-color:rgb(61.599731%,19.198608%,99.598694%);stop-opacity:1;"/>
<stop offset="0.0195313" style="stop-color:rgb(61.376953%,19.419861%,99.598694%);stop-opacity:1;"/>
<stop offset="0.0234375" style="stop-color:rgb(61.155701%,19.642639%,99.598694%);stop-opacity:1;"/>
<stop offset="0.0273438" style="stop-color:rgb(60.777283%,19.833374%,99.586487%);stop-opacity:1;"/>
<stop offset="0.03125" style="stop-color:rgb(60.398865%,20.024109%,99.57428%);stop-opacity:1;"/>
<stop offset="0.0351563" style="stop-color:rgb(60.198975%,20.214844%,99.386597%);stop-opacity:1;"/>
<stop offset="0.0390625" style="stop-color:rgb(59.999084%,20.405579%,99.198914%);stop-opacity:1;"/>
<stop offset="0.0429688" style="stop-color:rgb(59.805298%,20.602417%,99.198914%);stop-opacity:1;"/>
<stop offset="0.046875" style="stop-color:rgb(59.611511%,20.799255%,99.198914%);stop-opacity:1;"/>
<stop offset="0.0507812" style="stop-color:rgb(59.405518%,20.999146%,99.198914%);stop-opacity:1;"/>
<stop offset="0.0546875" style="stop-color:rgb(59.199524%,21.199036%,99.198914%);stop-opacity:1;"/>
<stop offset="0.0585938" style="stop-color:rgb(58.999634%,21.398926%,98.999023%);stop-opacity:1;"/>
<stop offset="0.0625" style="stop-color:rgb(58.799744%,21.598816%,98.799133%);stop-opacity:1;"/>
<stop offset="0.0664063" style="stop-color:rgb(58.583069%,21.813965%,98.799133%);stop-opacity:1;"/>
<stop offset="0.0703125" style="stop-color:rgb(58.36792%,22.03064%,98.799133%);stop-opacity:1;"/>
<stop offset="0.0742188" style="stop-color:rgb(57.983398%,22.219849%,98.79303%);stop-opacity:1;"/>
<stop offset="0.078125" style="stop-color:rgb(57.598877%,22.409058%,98.786926%);stop-opacity:1;"/>
<stop offset="0.0859375" style="stop-color:rgb(57.450867%,22.554016%,98.59314%);stop-opacity:1;"/>
<stop offset="0.0898438" style="stop-color:rgb(57.113647%,22.898865%,98.399353%);stop-opacity:1;"/>
<stop offset="0.09375" style="stop-color:rgb(56.924438%,23.098755%,98.399353%);stop-opacity:1;"/>
<stop offset="0.0976562" style="stop-color:rgb(56.733704%,23.298645%,98.399353%);stop-opacity:1;"/>
<stop offset="0.101562" style="stop-color:rgb(56.542969%,23.498535%,98.399353%);stop-opacity:1;"/>
<stop offset="0.105469" style="stop-color:rgb(56.30188%,23.716736%,98.199463%);stop-opacity:1;"/>
<stop offset="0.109375" style="stop-color:rgb(56.062317%,23.936462%,97.999573%);stop-opacity:1;"/>
<stop offset="0.117188" style="stop-color:rgb(55.871582%,24.127197%,97.999573%);stop-opacity:1;"/>
<stop offset="0.121094" style="stop-color:rgb(55.290222%,24.508667%,97.799683%);stop-opacity:1;"/>
<stop offset="0.125" style="stop-color:rgb(54.899597%,24.699402%,97.599792%);stop-opacity:1;"/>
<stop offset="0.128906" style="stop-color:rgb(54.708862%,24.899292%,97.599792%);stop-opacity:1;"/>
<stop offset="0.132813" style="stop-color:rgb(54.518127%,25.099182%,97.599792%);stop-opacity:1;"/>
<stop offset="0.136719" style="stop-color:rgb(54.327393%,25.299072%,97.599792%);stop-opacity:1;"/>
<stop offset="0.140625" style="stop-color:rgb(54.136658%,25.498962%,97.599792%);stop-opacity:1;"/>
<stop offset="0.144531" style="stop-color:rgb(53.895569%,25.720215%,97.44873%);stop-opacity:1;"/>
<stop offset="0.148438" style="stop-color:rgb(53.656006%,25.942993%,97.299194%);stop-opacity:1;"/>
<stop offset="0.15625" style="stop-color:rgb(53.465271%,26.133728%,97.299194%);stop-opacity:1;"/>
<stop offset="0.164063" style="stop-color:rgb(53.083801%,26.515198%,97.299194%);stop-opacity:1;"/>
<stop offset="0.167969" style="stop-color:rgb(52.696228%,26.902771%,97.105408%);stop-opacity:1;"/>
<stop offset="0.171875" style="stop-color:rgb(52.49939%,27.099609%,96.911621%);stop-opacity:1;"/>
<stop offset="0.175781" style="stop-color:rgb(52.165222%,27.2995%,96.905518%);stop-opacity:1;"/>
<stop offset="0.179688" style="stop-color:rgb(51.831055%,27.49939%,96.899414%);stop-opacity:1;"/>
<stop offset="0.1875" style="stop-color:rgb(51.64032%,27.648926%,96.899414%);stop-opacity:1;"/>
<stop offset="0.191406" style="stop-color:rgb(51.223755%,28.015137%,96.699524%);stop-opacity:1;"/>
<stop offset="0.195312" style="stop-color:rgb(50.999451%,28.230286%,96.499634%);stop-opacity:1;"/>
<stop offset="0.199219" style="stop-color:rgb(50.793457%,28.421021%,96.499634%);stop-opacity:1;"/>
<stop offset="0.203125" style="stop-color:rgb(50.587463%,28.611755%,96.499634%);stop-opacity:1;"/>
<stop offset="0.210938" style="stop-color:rgb(50.393677%,28.805542%,96.499634%);stop-opacity:1;"/>
<stop offset="0.214844" style="stop-color:rgb(49.998474%,29.199219%,96.311951%);stop-opacity:1;"/>
<stop offset="0.21875" style="stop-color:rgb(49.798584%,29.399109%,96.124268%);stop-opacity:1;"/>
<stop offset="0.222656" style="stop-color:rgb(49.420166%,29.598999%,96.112061%);stop-opacity:1;"/>
<stop offset="0.226562" style="stop-color:rgb(49.043274%,29.798889%,96.099854%);stop-opacity:1;"/>
<stop offset="0.230469" style="stop-color:rgb(48.820496%,30.01709%,96.099854%);stop-opacity:1;"/>
<stop offset="0.234375" style="stop-color:rgb(48.599243%,30.236816%,96.099854%);stop-opacity:1;"/>
<stop offset="0.238281" style="stop-color:rgb(48.399353%,30.427551%,95.898438%);stop-opacity:1;"/>
<stop offset="0.242188" style="stop-color:rgb(48.199463%,30.618286%,95.698547%);stop-opacity:1;"/>
<stop offset="0.246094" style="stop-color:rgb(47.999573%,30.809021%,95.698547%);stop-opacity:1;"/>
<stop offset="0.25" style="stop-color:rgb(47.799683%,30.999756%,95.698547%);stop-opacity:1;"/>
<stop offset="0.253906" style="stop-color:rgb(47.648621%,31.390381%,95.698547%);stop-opacity:1;"/>
<stop offset="0.257813" style="stop-color:rgb(47.499084%,31.781006%,95.698547%);stop-opacity:1;"/>
<stop offset="0.261719" style="stop-color:rgb(47.299194%,31.971741%,95.498657%);stop-opacity:1;"/>
<stop offset="0.265625" style="stop-color:rgb(47.099304%,32.162476%,95.298767%);stop-opacity:1;"/>
<stop offset="0.269531" style="stop-color:rgb(46.876526%,32.330322%,95.298767%);stop-opacity:1;"/>
<stop offset="0.273438" style="stop-color:rgb(46.655273%,32.499695%,95.298767%);stop-opacity:1;"/>
<stop offset="0.277344" style="stop-color:rgb(46.276855%,32.699585%,95.28656%);stop-opacity:1;"/>
<stop offset="0.28125" style="stop-color:rgb(45.899963%,32.899475%,95.274353%);stop-opacity:1;"/>
<stop offset="0.285156" style="stop-color:rgb(45.698547%,33.099365%,95.08667%);stop-opacity:1;"/>
<stop offset="0.289063" style="stop-color:rgb(45.498657%,33.299255%,94.898987%);stop-opacity:1;"/>
<stop offset="0.296875" style="stop-color:rgb(45.304871%,33.493042%,94.898987%);stop-opacity:1;"/>
<stop offset="0.300781" style="stop-color:rgb(44.90509%,33.877563%,94.898987%);stop-opacity:1;"/>
<stop offset="0.304688" style="stop-color:rgb(44.699097%,34.068298%,94.898987%);stop-opacity:1;"/>
<stop offset="0.308594" style="stop-color:rgb(44.499207%,34.259033%,94.699097%);stop-opacity:1;"/>
<stop offset="0.3125" style="stop-color:rgb(44.299316%,34.449768%,94.499207%);stop-opacity:1;"/>
<stop offset="0.316406" style="stop-color:rgb(44.082642%,34.674072%,94.499207%);stop-opacity:1;"/>
<stop offset="0.320313" style="stop-color:rgb(43.867493%,34.899902%,94.499207%);stop-opacity:1;"/>
<stop offset="0.324219" style="stop-color:rgb(43.482971%,35.099792%,94.493103%);stop-opacity:1;"/>
<stop offset="0.328125" style="stop-color:rgb(43.099976%,35.299683%,94.487%);stop-opacity:1;"/>
<stop offset="0.332031" style="stop-color:rgb(42.901611%,35.496521%,94.293213%);stop-opacity:1;"/>
<stop offset="0.335938" style="stop-color:rgb(42.704773%,35.693359%,94.099426%);stop-opacity:1;"/>
<stop offset="0.34375" style="stop-color:rgb(42.56134%,35.884094%,94.099426%);stop-opacity:1;"/>
<stop offset="0.351563" style="stop-color:rgb(42.230225%,36.264038%,94.099426%);stop-opacity:1;"/>
<stop offset="0.355469" style="stop-color:rgb(41.801453%,36.676025%,93.899536%);stop-opacity:1;"/>
<stop offset="0.359375" style="stop-color:rgb(41.56189%,36.898804%,93.699646%);stop-opacity:1;"/>
<stop offset="0.363281" style="stop-color:rgb(41.371155%,37.098694%,93.699646%);stop-opacity:1;"/>
<stop offset="0.367188" style="stop-color:rgb(41.18042%,37.298584%,93.699646%);stop-opacity:1;"/>
<stop offset="0.371094" style="stop-color:rgb(40.789795%,37.44812%,93.499756%);stop-opacity:1;"/>
<stop offset="0.375" style="stop-color:rgb(40.39917%,37.599182%,93.299866%);stop-opacity:1;"/>
<stop offset="0.382812" style="stop-color:rgb(40.208435%,37.789917%,93.299866%);stop-opacity:1;"/>
<stop offset="0.390625" style="stop-color:rgb(39.826965%,38.171387%,93.299866%);stop-opacity:1;"/>
<stop offset="0.394531" style="stop-color:rgb(39.395142%,38.580322%,93.09845%);stop-opacity:1;"/>
<stop offset="0.398438" style="stop-color:rgb(39.155579%,38.798523%,92.89856%);stop-opacity:1;"/>
<stop offset="0.402344" style="stop-color:rgb(38.964844%,38.998413%,92.89856%);stop-opacity:1;"/>
<stop offset="0.40625" style="stop-color:rgb(38.774109%,39.199829%,92.89856%);stop-opacity:1;"/>
<stop offset="0.410156" style="stop-color:rgb(38.583374%,39.399719%,92.89856%);stop-opacity:1;"/>
<stop offset="0.414062" style="stop-color:rgb(38.392639%,39.599609%,92.89856%);stop-opacity:1;"/>
<stop offset="0.417969" style="stop-color:rgb(38.195801%,39.793396%,92.704773%);stop-opacity:1;"/>
<stop offset="0.421875" style="stop-color:rgb(37.998962%,39.987183%,92.510986%);stop-opacity:1;"/>
<stop offset="0.425781" style="stop-color:rgb(37.660217%,40.177917%,92.504883%);stop-opacity:1;"/>
<stop offset="0.429688" style="stop-color:rgb(37.322998%,40.368652%,92.498779%);stop-opacity:1;"/>
<stop offset="0.4375" style="stop-color:rgb(37.135315%,40.557861%,92.498779%);stop-opacity:1;"/>
<stop offset="0.441406" style="stop-color:rgb(36.723328%,40.9729%,92.349243%);stop-opacity:1;"/>
<stop offset="0.445312" style="stop-color:rgb(36.499023%,41.19873%,92.199707%);stop-opacity:1;"/>
<stop offset="0.449219" style="stop-color:rgb(36.29303%,41.398621%,92.199707%);stop-opacity:1;"/>
<stop offset="0.453125" style="stop-color:rgb(36.087036%,41.598511%,92.199707%);stop-opacity:1;"/>
<stop offset="0.457031" style="stop-color:rgb(35.89325%,41.795349%,92.199707%);stop-opacity:1;"/>
<stop offset="0.460938" style="stop-color:rgb(35.699463%,41.993713%,92.199707%);stop-opacity:1;"/>
<stop offset="0.464844" style="stop-color:rgb(35.499573%,42.182922%,92.012024%);stop-opacity:1;"/>
<stop offset="0.46875" style="stop-color:rgb(35.299683%,42.373657%,91.824341%);stop-opacity:1;"/>
<stop offset="0.472656" style="stop-color:rgb(34.921265%,42.520142%,91.812134%);stop-opacity:1;"/>
<stop offset="0.476562" style="stop-color:rgb(34.542847%,42.666626%,91.799927%);stop-opacity:1;"/>
<stop offset="0.480469" style="stop-color:rgb(34.320068%,42.883301%,91.799927%);stop-opacity:1;"/>
<stop offset="0.484375" style="stop-color:rgb(34.098816%,43.099976%,91.799927%);stop-opacity:1;"/>
<stop offset="0.488281" style="stop-color:rgb(33.898926%,43.299866%,91.598511%);stop-opacity:1;"/>
<stop offset="0.492188" style="stop-color:rgb(33.699036%,43.499756%,91.398621%);stop-opacity:1;"/>
<stop offset="0.496094" style="stop-color:rgb(33.499146%,43.699646%,91.398621%);stop-opacity:1;"/>
<stop offset="0.5" style="stop-color:rgb(33.299255%,43.899536%,91.398621%);stop-opacity:1;"/>
<stop offset="0.503906" style="stop-color:rgb(33.099365%,44.099426%,91.398621%);stop-opacity:1;"/>
<stop offset="0.507812" style="stop-color:rgb(32.899475%,44.299316%,91.398621%);stop-opacity:1;"/>
<stop offset="0.511719" style="stop-color:rgb(32.699585%,44.499207%,91.19873%);stop-opacity:1;"/>
<stop offset="0.515625" style="stop-color:rgb(32.499695%,44.699097%,90.99884%);stop-opacity:1;"/>
<stop offset="0.519531" style="stop-color:rgb(32.327271%,44.920349%,90.99884%);stop-opacity:1;"/>
<stop offset="0.523438" style="stop-color:rgb(32.154846%,45.143127%,90.99884%);stop-opacity:1;"/>
<stop offset="0.527344" style="stop-color:rgb(31.776428%,45.333862%,90.986633%);stop-opacity:1;"/>
<stop offset="0.53125" style="stop-color:rgb(31.399536%,45.524597%,90.974426%);stop-opacity:1;"/>
<stop offset="0.535156" style="stop-color:rgb(31.199646%,45.715332%,90.786743%);stop-opacity:1;"/>
<stop offset="0.539063" style="stop-color:rgb(30.999756%,45.906067%,90.59906%);stop-opacity:1;"/>
<stop offset="0.542969" style="stop-color:rgb(30.805969%,46.102905%,90.59906%);stop-opacity:1;"/>
<stop offset="0.546875" style="stop-color:rgb(30.612183%,46.299744%,90.59906%);stop-opacity:1;"/>
<stop offset="0.550781" style="stop-color:rgb(30.404663%,46.499634%,90.59906%);stop-opacity:1;"/>
<stop offset="0.554688" style="stop-color:rgb(30.198669%,46.699524%,90.59906%);stop-opacity:1;"/>
<stop offset="0.558594" style="stop-color:rgb(29.998779%,46.899414%,90.39917%);stop-opacity:1;"/>
<stop offset="0.5625" style="stop-color:rgb(29.798889%,47.099304%,90.19928%);stop-opacity:1;"/>
<stop offset="0.566406" style="stop-color:rgb(29.58374%,47.309875%,90.19928%);stop-opacity:1;"/>
<stop offset="0.570313" style="stop-color:rgb(29.368591%,47.521973%,90.19928%);stop-opacity:1;"/>
<stop offset="0.574219" style="stop-color:rgb(28.98407%,47.666931%,90.193176%);stop-opacity:1;"/>
<stop offset="0.578125" style="stop-color:rgb(28.599548%,47.81189%,90.187073%);stop-opacity:1;"/>
<stop offset="0.582031" style="stop-color:rgb(28.40271%,48.005676%,89.993286%);stop-opacity:1;"/>
<stop offset="0.585938" style="stop-color:rgb(28.205872%,48.199463%,89.7995%);stop-opacity:1;"/>
<stop offset="0.589844" style="stop-color:rgb(28.015137%,48.399353%,89.7995%);stop-opacity:1;"/>
<stop offset="0.59375" style="stop-color:rgb(27.824402%,48.599243%,89.7995%);stop-opacity:1;"/>
<stop offset="0.597656" style="stop-color:rgb(27.677917%,48.799133%,89.7995%);stop-opacity:1;"/>
<stop offset="0.601563" style="stop-color:rgb(27.531433%,48.999023%,89.7995%);stop-opacity:1;"/>
<stop offset="0.605469" style="stop-color:rgb(27.296448%,49.217224%,89.599609%);stop-opacity:1;"/>
<stop offset="0.609375" style="stop-color:rgb(27.061462%,49.436951%,89.399719%);stop-opacity:1;"/>
<stop offset="0.617188" style="stop-color:rgb(26.870728%,49.627686%,89.399719%);stop-opacity:1;"/>
<stop offset="0.621094" style="stop-color:rgb(26.289368%,50.009155%,89.199829%);stop-opacity:1;"/>
<stop offset="0.625" style="stop-color:rgb(25.898743%,50.19989%,88.999939%);stop-opacity:1;"/>
<stop offset="0.628906" style="stop-color:rgb(25.708008%,50.39978%,88.999939%);stop-opacity:1;"/>
<stop offset="0.632813" style="stop-color:rgb(25.517273%,50.59967%,88.999939%);stop-opacity:1;"/>
<stop offset="0.636719" style="stop-color:rgb(25.326538%,50.799561%,88.999939%);stop-opacity:1;"/>
<stop offset="0.640625" style="stop-color:rgb(25.137329%,50.999451%,88.999939%);stop-opacity:1;"/>
<stop offset="0.644531" style="stop-color:rgb(24.89624%,51.220703%,88.798523%);stop-opacity:1;"/>
<stop offset="0.648438" style="stop-color:rgb(24.655151%,51.443481%,88.598633%);stop-opacity:1;"/>
<stop offset="0.65625" style="stop-color:rgb(24.464417%,51.634216%,88.598633%);stop-opacity:1;"/>
<stop offset="0.664063" style="stop-color:rgb(24.082947%,52.01416%,88.598633%);stop-opacity:1;"/>
<stop offset="0.667969" style="stop-color:rgb(23.695374%,52.351379%,88.404846%);stop-opacity:1;"/>
<stop offset="0.671875" style="stop-color:rgb(23.498535%,52.49939%,88.21106%);stop-opacity:1;"/>
<stop offset="0.675781" style="stop-color:rgb(23.114014%,52.69928%,88.204956%);stop-opacity:1;"/>
<stop offset="0.679688" style="stop-color:rgb(22.731018%,52.89917%,88.198853%);stop-opacity:1;"/>
<stop offset="0.683594" style="stop-color:rgb(22.583008%,53.09906%,88.198853%);stop-opacity:1;"/>
<stop offset="0.6875" style="stop-color:rgb(22.436523%,53.29895%,88.198853%);stop-opacity:1;"/>
<stop offset="0.691406" style="stop-color:rgb(22.216797%,53.514099%,87.998962%);stop-opacity:1;"/>
<stop offset="0.695313" style="stop-color:rgb(21.998596%,53.730774%,87.799072%);stop-opacity:1;"/>
<stop offset="0.699219" style="stop-color:rgb(21.792603%,53.921509%,87.799072%);stop-opacity:1;"/>
<stop offset="0.703125" style="stop-color:rgb(21.586609%,54.112244%,87.799072%);stop-opacity:1;"/>
<stop offset="0.710938" style="stop-color:rgb(21.392822%,54.30603%,87.799072%);stop-opacity:1;"/>
<stop offset="0.714844" style="stop-color:rgb(20.999146%,54.699707%,87.658691%);stop-opacity:1;"/>
<stop offset="0.71875" style="stop-color:rgb(20.799255%,54.899597%,87.518311%);stop-opacity:1;"/>
<stop offset="0.722656" style="stop-color:rgb(20.420837%,55.099487%,87.509155%);stop-opacity:1;"/>
<stop offset="0.726563" style="stop-color:rgb(20.042419%,55.299377%,87.5%);stop-opacity:1;"/>
<stop offset="0.730469" style="stop-color:rgb(19.821167%,55.517578%,87.5%);stop-opacity:1;"/>
<stop offset="0.734375" style="stop-color:rgb(19.599915%,55.737305%,87.5%);stop-opacity:1;"/>
<stop offset="0.738281" style="stop-color:rgb(19.398499%,55.926514%,87.298584%);stop-opacity:1;"/>
<stop offset="0.742188" style="stop-color:rgb(19.198608%,56.117249%,87.098694%);stop-opacity:1;"/>
<stop offset="0.746094" style="stop-color:rgb(18.998718%,56.307983%,87.098694%);stop-opacity:1;"/>
<stop offset="0.75" style="stop-color:rgb(18.798828%,56.498718%,87.098694%);stop-opacity:1;"/>
<stop offset="0.753906" style="stop-color:rgb(18.598938%,56.889343%,87.098694%);stop-opacity:1;"/>
<stop offset="0.757812" style="stop-color:rgb(18.399048%,57.279968%,87.098694%);stop-opacity:1;"/>
<stop offset="0.761719" style="stop-color:rgb(18.199158%,57.424927%,86.898804%);stop-opacity:1;"/>
<stop offset="0.765625" style="stop-color:rgb(17.999268%,57.571411%,86.698914%);stop-opacity:1;"/>
<stop offset="0.769531" style="stop-color:rgb(17.782593%,57.785034%,86.698914%);stop-opacity:1;"/>
<stop offset="0.773438" style="stop-color:rgb(17.565918%,57.998657%,86.698914%);stop-opacity:1;"/>
<stop offset="0.777344" style="stop-color:rgb(17.23175%,58.198547%,86.686707%);stop-opacity:1;"/>
<stop offset="0.78125" style="stop-color:rgb(16.899109%,58.399963%,86.6745%);stop-opacity:1;"/>
<stop offset="0.785156" style="stop-color:rgb(16.699219%,58.599854%,86.486816%);stop-opacity:1;"/>
<stop offset="0.789062" style="stop-color:rgb(16.499329%,58.799744%,86.299133%);stop-opacity:1;"/>
<stop offset="0.796875" style="stop-color:rgb(16.305542%,58.99353%,86.299133%);stop-opacity:1;"/>
<stop offset="0.800781" style="stop-color:rgb(15.905762%,59.376526%,86.299133%);stop-opacity:1;"/>
<stop offset="0.804688" style="stop-color:rgb(15.699768%,59.567261%,86.299133%);stop-opacity:1;"/>
<stop offset="0.808594" style="stop-color:rgb(15.499878%,59.757996%,86.099243%);stop-opacity:1;"/>
<stop offset="0.8125" style="stop-color:rgb(15.299988%,59.94873%,85.899353%);stop-opacity:1;"/>
<stop offset="0.816406" style="stop-color:rgb(15.083313%,60.173035%,85.899353%);stop-opacity:1;"/>
<stop offset="0.820312" style="stop-color:rgb(14.868164%,60.398865%,85.899353%);stop-opacity:1;"/>
<stop offset="0.824219" style="stop-color:rgb(14.483643%,60.598755%,85.89325%);stop-opacity:1;"/>
<stop offset="0.828125" style="stop-color:rgb(14.099121%,60.798645%,85.887146%);stop-opacity:1;"/>
<stop offset="0.832031" style="stop-color:rgb(13.902283%,60.995483%,85.693359%);stop-opacity:1;"/>
<stop offset="0.835938" style="stop-color:rgb(13.705444%,61.192322%,85.499573%);stop-opacity:1;"/>
<stop offset="0.84375" style="stop-color:rgb(13.514709%,61.383057%,85.499573%);stop-opacity:1;"/>
<stop offset="0.851562" style="stop-color:rgb(13.13324%,61.764526%,85.499573%);stop-opacity:1;"/>
<stop offset="0.855469" style="stop-color:rgb(12.705994%,62.176514%,85.299683%);stop-opacity:1;"/>
<stop offset="0.859375" style="stop-color:rgb(12.471008%,62.399292%,85.099792%);stop-opacity:1;"/>
<stop offset="0.867188" style="stop-color:rgb(12.32605%,62.548828%,85.099792%);stop-opacity:1;"/>
<stop offset="0.871094" style="stop-color:rgb(11.790466%,62.89978%,84.898376%);stop-opacity:1;"/>
<stop offset="0.875" style="stop-color:rgb(11.399841%,63.09967%,84.698486%);stop-opacity:1;"/>
<stop offset="0.882812" style="stop-color:rgb(11.209106%,63.290405%,84.698486%);stop-opacity:1;"/>
<stop offset="0.890625" style="stop-color:rgb(10.827637%,63.670349%,84.698486%);stop-opacity:1;"/>
<stop offset="0.894531" style="stop-color:rgb(10.395813%,64.079285%,84.498596%);stop-opacity:1;"/>
<stop offset="0.898438" style="stop-color:rgb(10.154724%,64.299011%,84.298706%);stop-opacity:1;"/>
<stop offset="0.902344" style="stop-color:rgb(9.963989%,64.498901%,84.298706%);stop-opacity:1;"/>
<stop offset="0.90625" style="stop-color:rgb(9.77478%,64.698792%,84.298706%);stop-opacity:1;"/>
<stop offset="0.910156" style="stop-color:rgb(9.584045%,64.898682%,84.298706%);stop-opacity:1;"/>
<stop offset="0.914062" style="stop-color:rgb(9.393311%,65.098572%,84.298706%);stop-opacity:1;"/>
<stop offset="0.917969" style="stop-color:rgb(9.196472%,65.292358%,84.104919%);stop-opacity:1;"/>
<stop offset="0.921875" style="stop-color:rgb(8.999634%,65.486145%,83.911133%);stop-opacity:1;"/>
<stop offset="0.925781" style="stop-color:rgb(8.615112%,65.67688%,83.905029%);stop-opacity:1;"/>
<stop offset="0.929688" style="stop-color:rgb(8.230591%,65.867615%,83.898926%);stop-opacity:1;"/>
<stop offset="0.9375" style="stop-color:rgb(8.039856%,66.05835%,83.898926%);stop-opacity:1;"/>
<stop offset="0.941406" style="stop-color:rgb(7.673645%,66.473389%,83.699036%);stop-opacity:1;"/>
<stop offset="0.945312" style="stop-color:rgb(7.499695%,66.699219%,83.499146%);stop-opacity:1;"/>
<stop offset="0.949219" style="stop-color:rgb(7.292175%,66.899109%,83.499146%);stop-opacity:1;"/>
<stop offset="0.953125" style="stop-color:rgb(7.086182%,67.098999%,83.499146%);stop-opacity:1;"/>
<stop offset="0.957031" style="stop-color:rgb(6.892395%,67.295837%,83.499146%);stop-opacity:1;"/>
<stop offset="0.960938" style="stop-color:rgb(6.698608%,67.492676%,83.499146%);stop-opacity:1;"/>
<stop offset="0.964844" style="stop-color:rgb(6.498718%,67.636108%,83.311462%);stop-opacity:1;"/>
<stop offset="0.96875" style="stop-color:rgb(6.298828%,67.781067%,83.123779%);stop-opacity:1;"/>
<stop offset="0.972656" style="stop-color:rgb(5.92041%,67.967224%,83.111572%);stop-opacity:1;"/>
<stop offset="0.976562" style="stop-color:rgb(5.543518%,68.154907%,83.099365%);stop-opacity:1;"/>
<stop offset="0.980469" style="stop-color:rgb(5.32074%,68.37616%,83.099365%);stop-opacity:1;"/>
<stop offset="0.984375" style="stop-color:rgb(5.099487%,68.598938%,83.099365%);stop-opacity:1;"/>
<stop offset="0.988281" style="stop-color:rgb(4.899597%,68.798828%,82.899475%);stop-opacity:1;"/>
<stop offset="0.992188" style="stop-color:rgb(4.699707%,68.998718%,82.699585%);stop-opacity:1;"/>
<stop offset="0.996094" style="stop-color:rgb(4.499817%,69.198608%,82.699585%);stop-opacity:1;"/>
<stop offset="1" style="stop-color:rgb(4.299927%,69.398499%,82.699585%);stop-opacity:1;"/>
</linearGradient>
</defs>
<g id="surface1">
<g clip-path="url(#clip1)" clip-rule="nonzero">
<g clip-path="url(#clip2)" clip-rule="nonzero">
<g clip-path="url(#clip3)" clip-rule="nonzero">
<path style=" stroke:none;fill-rule:nonzero;fill:url(#linear0);" d="M 37.5 337.5 L 337.5 337.5 L 337.5 37.5 L 37.5 37.5 Z M 37.5 337.5 "/>
</g>
</g>
</g>
</g>
</svg>
